<?xml version="1.0" encoding="UTF-8"?>
<svg width="24px" height="24px" viewBox="0 0 24 24" version="1.1" xmlns="http://www.w3.org/2000/svg" xmlns:xlink="http://www.w3.org/1999/xlink">
    <!-- Generator: Sketch 47.1 (45422) - http://www.bohemiancoding.com/sketch -->
    <title>github</title>
    <desc>Created with Sketch.</desc>
    <defs></defs>
    <g id="Icons" stroke="none" stroke-width="1" fill="none" fill-rule="evenodd">
        <path d="M0,12.00075 C0,17.30175 3.438,21.7995 8.20725,23.3865 C8.80725,23.49675 9.02625,23.12625 9.02625,22.80825 C9.02625,22.52325 9.01575,21.76875 9.00975,20.7675 C5.6715,21.49275 4.96725,19.15875 4.96725,19.15875 C4.422,17.77275 3.63525,17.40375 3.63525,17.40375 C2.5455,16.659 3.71775,16.674 3.71775,16.674 C4.9215,16.75875 5.55525,17.91075 5.55525,17.91075 C6.62625,19.7445 8.364,19.215 9.048,18.9075 C9.15675,18.132 9.46725,17.60325 9.81,17.30325 C7.14525,17.00025 4.344,15.97125 4.344,11.373 C4.344,10.06275 4.81125,8.99175 5.57925,8.1525 C5.4555,7.84875 5.04375,6.62925 5.69625,4.977 C5.69625,4.977 6.70425,4.6545 8.99625,6.207 C9.954,5.94075 10.98,5.808 12.00075,5.80275 C13.02,5.808 14.04675,5.94075 15.00525,6.207 C17.29575,4.6545 18.3015,4.977 18.3015,4.977 C18.95625,6.62925 18.5445,7.84875 18.42075,8.1525 C19.19025,8.99175 19.6545,10.06275 19.6545,11.373 C19.6545,15.9825 16.84875,16.99725 14.17575,17.29425 C14.60625,17.66475 14.99025,18.39675 14.99025,19.5165 C14.99025,21.12075 14.97525,22.4145 14.97525,22.80825 C14.97525,23.12925 15.19125,23.50275 15.80025,23.385 C20.565,21.795 24,17.30025 24,12.00075 C24,5.37225 18.627,0 11.99925,0 C5.373,0 0,5.37225 0,12.00075 Z" id="github" fill="#333333"></path>
    </g>
</svg>