<?xml version="1.0" encoding="UTF-8"?>
<svg width="23px" height="24px" viewBox="0 0 23 24" version="1.1" xmlns="http://www.w3.org/2000/svg" xmlns:xlink="http://www.w3.org/1999/xlink">
    <!-- Generator: Sketch 47.1 (45422) - http://www.bohemiancoding.com/sketch -->
    <title>angular</title>
    <desc>Created with Sketch.</desc>
    <defs></defs>
    <g id="Icons" stroke="none" stroke-width="1" fill="none" fill-rule="evenodd">
        <g id="angular" transform="translate(0.300003, 0.000000)" fill-rule="nonzero" fill="#333333">
            <polygon id="Shape" points="9.13000488 12.648 11.1700049 12.648 11.1700049 12.648 11.1700049 12.648 13.2100049 12.648 11.1700049 7.74"></polygon>
            <path d="M11.172,0 L11.172,0 L11.172,0 L0,3.984 L1.704,18.756 L11.172,24 L11.172,24 L11.172,24 L20.64,18.756 L22.344,3.984 L11.172,0 Z M18.144,18.312 L15.54,18.312 L15.54,18.312 L14.136,14.808 L11.172,14.808 L11.172,14.808 L11.172,14.808 L8.208,14.808 L6.804,18.312 L6.804,18.312 L4.2,18.312 L4.2,18.312 L11.172,2.652 L11.172,2.652 L11.172,2.652 L11.172,2.652 L11.172,2.652 L18.144,18.312 L18.144,18.312 Z" id="Shape"></path>
        </g>
    </g>
</svg>