<?xml version="1.0" encoding="UTF-8"?>
<svg width="24px" height="24px" viewBox="0 0 24 24" version="1.1" xmlns="http://www.w3.org/2000/svg" xmlns:xlink="http://www.w3.org/1999/xlink">
    <!-- Generator: Sketch 47.1 (45422) - http://www.bohemiancoding.com/sketch -->
    <title>linkedin</title>
    <desc>Created with Sketch.</desc>
    <defs></defs>
    <g id="Icons" stroke="none" stroke-width="1" fill="none" fill-rule="evenodd">
        <path d="M24,23.9559902 L19.0268949,23.9559902 L19.0268949,16.174642 C19.0268949,14.3188963 18.9954593,11.9318896 16.4428921,11.9318896 C13.8557457,11.9318896 13.4607056,13.9542438 13.4607056,16.0415648 L13.4607056,23.9559902 L8.49283968,23.9559902 L8.49283968,7.9542438 L13.2605658,7.9542438 L13.2605658,10.1421586 L13.3286762,10.1421586 C13.9919665,8.88368844 15.6140412,7.55710793 18.0335313,7.55710793 C23.0695075,7.55710793 24,10.8704156 24,15.1802305 L24,23.9559902 Z M2.88578414,5.76842473 C1.28780999,5.76842473 0,4.47642333 0,2.88368844 C0,1.2920014 1.28780999,0 2.88578414,0 C4.47642333,0 5.76842473,1.2920014 5.76842473,2.88368844 C5.76842473,4.47642333 4.47642333,5.76842473 2.88578414,5.76842473 L2.88578414,5.76842473 Z M5.37338456,23.9559902 L0.395040168,23.9559902 L0.395040168,7.9542438 L5.37338456,7.9542438 L5.37338456,23.9559902 Z" id="linkedin" fill="#333333"></path>
    </g>
</svg>